<?xml version="1.0" standalone="no"?>
<!DOCTYPE svg PUBLIC "-//W3C//DTD SVG 20010904//EN"
 "http://www.w3.org/TR/2001/REC-SVG-20010904/DTD/svg10.dtd">
<svg version="1.0" xmlns="http://www.w3.org/2000/svg"
 width="160.000000pt" height="90.000000pt" viewBox="0 0 160.000000 90.000000"
 preserveAspectRatio="xMidYMid meet">
<metadata>
Created by potrace 1.16, written by Peter Selinger 2001-2019
</metadata>
<g transform="translate(0.000000,90.000000) scale(0.100000,-0.100000)"
fill="#000000" stroke="none">
<path d="M0 450 l0 -450 800 0 800 0 0 450 0 450 -800 0 -800 0 0 -450z m493
259 c84 -102 117 -149 117 -168 0 -18 -29 -61 -96 -141 -146 -177 -170 -194
-214 -150 -37 37 -26 65 71 181 105 127 107 99 -15 244 -48 57 -76 99 -76 114
0 35 28 61 65 61 29 0 43 -14 148 -141z m616 -523 c28 -30 23 -68 -13 -91 -36
-24 -467 -18 -492 7 -22 21 -21 64 1 88 17 19 32 20 250 20 l232 0 22 -24z"/>
</g>
</svg>
